<svg xmlns="http://www.w3.org/2000/svg" xmlns:xlink="http://www.w3.org/1999/xlink" xml:space="preserve" version="1.1" style="shape-rendering:geometricPrecision;text-rendering:geometricPrecision;image-rendering:optimizeQuality;" viewBox="0 0 846.66 1058.325" x="0px" y="0px" fill-rule="evenodd" clip-rule="evenodd"><defs><style type="text/css">
   
    .fil0 {fill:black}
   
  </style></defs><g><path class="fil0" d="M401.04 197.91c28.26,0 51.17,22.92 51.17,51.18 0,28.27 -22.91,51.17 -51.17,51.17 -28.28,0 -51.19,-22.9 -51.19,-51.17 0,-28.26 22.91,-51.18 51.19,-51.18zm-346.04 -71.81l736.66 0 0 342.92 -241.54 0c-7.14,-62 -33.73,-111.2 -80.8,-158.26 -4.11,-4.11 -8.76,-7.77 -13.67,-10.84 12.4,-13.33 19.98,-31.18 19.98,-50.83 0,-41.2 -33.43,-74.6 -74.57,-74.6 -41.22,0 -74.6,33.4 -74.6,74.6 0,19.65 7.53,37.5 19.93,50.83 -4.98,3.12 -9.5,6.73 -13.67,10.84 -20.23,20.28 -32.68,42.02 -44.23,66.13l-6.83 -3.44 -55.23 95.57 -171.43 0 0 -342.92zm397.92 201.06c50.93,50.95 75.98,103.61 75.98,177.57 0,29.04 -44.17,29.04 -44.17,0 0,-31.36 -5.43,-57.84 -16.29,-81.78l0 91.57 -5.21 0 0 184.24c0,29.05 -44.15,29.05 -44.15,0l0 -184.24 -29.68 0 0 184.24c0,29.05 -44.17,29.05 -44.17,0l0 -157.63 -34.77 -20.11c-12.4,10.94 -37.32,5.51 -37.32,-16.29l0.06 -5.21 -28.22 -16.23 45.91 -79.47 8.74 4.3c12.64,-27.89 24.69,-56.16 49.49,-80.96 5.73,-5.74 13.04,-10.2 21.16,-13.28 8.57,6.5 19.18,10.32 30.78,10.32 11.52,0 22.19,-3.77 30.76,-10.25 8.07,3.06 15.37,7.47 21.1,13.21zm-53.43 25.62l39.52 0 0 18.6 -39.52 0 0 -18.6zm-73.19 89.31c-7.44,23.46 -8.02,41.09 -9.12,65.18l24.23 13.97 30.55 -52.8 -45.66 -26.35zm-52.35 40.21c0.59,-7.94 1.45,-15.59 2.72,-23.01l-10.61 18.44 7.89 4.57z"/></g><text x="0" y="861.66" fill="#000000" font-size="5px" font-weight="bold" font-family="'Helvetica Neue', Helvetica, Arial-Unicode, Arial, Sans-serif">Created by Susannanova</text><text x="0" y="866.66" fill="#000000" font-size="5px" font-weight="bold" font-family="'Helvetica Neue', Helvetica, Arial-Unicode, Arial, Sans-serif">from the Noun Project</text></svg>